<svg width="40" height="40" viewBox="0 0 40 40" fill="none" xmlns="http://www.w3.org/2000/svg">
<path d="M8.33337 9.99992V9.16659C8.33337 7.59492 8.33337 6.80992 8.82171 6.32159C9.31004 5.83325 10.095 5.83325 11.6667 5.83325C13.2384 5.83325 14.0234 5.83325 14.5117 6.32159C15 6.80992 15 7.59492 15 9.16659V9.99992M25 8.33325H30" stroke="white" stroke-width="1.5" stroke-linecap="round" stroke-linejoin="round"/>
<path d="M26.6667 3.33325H24.445C21.3217 3.33325 20 4.88992 20 7.77825C20 9.22158 19.3383 9.99992 17.7783 9.99992H11.6667C8.52333 9.99992 6.95333 9.99992 5.97667 10.9766C5 11.9533 5 13.5233 5 16.6666V24.9999C5 30.4999 5 33.2499 6.70833 34.9583C8.41667 36.6666 11.1667 36.6666 16.6667 36.6666H23.3333C28.8333 36.6666 31.5833 36.6666 33.2917 34.9583C35 33.2499 35 30.4999 35 24.9999V11.6666C35 7.73825 35 5.77325 33.78 4.55325C32.5583 3.33325 30.595 3.33325 26.6667 3.33325Z" stroke="white" stroke-width="1.5" stroke-linecap="round" stroke-linejoin="round"/>
<path d="M15 24.3115C15 21.8716 17.1067 19.4599 18.5833 18.0666C18.9648 17.7018 19.4722 17.4983 20 17.4983C20.5278 17.4983 21.0352 17.7018 21.4167 18.0666C22.8933 19.4599 25 21.8716 25 24.3115C24.9957 24.9602 24.8624 25.6015 24.6079 26.1981C24.3533 26.7947 23.9825 27.3347 23.5171 27.7865C23.0518 28.2384 22.5011 28.5931 21.8973 28.8301C21.2934 29.067 20.6485 29.1814 20 29.1666C16.8933 29.1666 15 26.7049 15 24.3115Z" stroke="white" stroke-width="1.5" stroke-linecap="round" stroke-linejoin="round"/>
</svg>
