<svg width="40" height="40" viewBox="0 0 40 40" fill="none" xmlns="http://www.w3.org/2000/svg">
<mask id="mask0_2232_21" style="mask-type:luminance" maskUnits="userSpaceOnUse" x="5" y="2" width="33" height="33">
<path d="M20 33.3332C27.3641 33.3332 33.3333 27.364 33.3333 19.9998C33.3333 12.6357 27.3641 6.6665 20 6.6665C12.6358 6.6665 6.66663 12.6357 6.66663 19.9998C6.66663 27.364 12.6358 33.3332 20 33.3332Z" stroke="white" stroke-width="2" stroke-linecap="round" stroke-linejoin="round"/>
<path d="M20 23.3333C20.884 23.3333 21.7319 22.9821 22.357 22.3569C22.9821 21.7318 23.3333 20.884 23.3333 19.9999C23.3333 19.1159 22.9821 18.268 22.357 17.6429C21.7319 17.0178 20.884 16.6666 20 16.6666C19.1159 16.6666 18.2681 17.0178 17.6429 17.6429C17.0178 18.268 16.6666 19.1159 16.6666 19.9999C16.6666 20.884 17.0178 21.7318 17.6429 22.3569C18.2681 22.9821 19.1159 23.3333 20 23.3333ZM20 3.33325C22.1887 3.33325 24.3559 3.76435 26.378 4.60193C28.4001 5.4395 30.2374 6.66716 31.7851 8.21481C33.3327 9.76245 34.5604 11.5998 35.398 13.6219C36.2355 15.644 36.6666 17.8112 36.6666 19.9999H30.005C30.005 17.3464 28.9509 14.8016 27.0746 12.9253C25.1983 11.049 22.6535 9.99492 20 9.99492V3.33325Z" fill="#555555" stroke="white" stroke-width="2" stroke-linecap="round" stroke-linejoin="round"/>
</mask>
<g mask="url(#mask0_2232_21)">
<path d="M0 0H40V40H0V0Z" fill="white"/>
</g>
</svg>
