<svg width="40" height="40" viewBox="0 0 40 40" fill="none" xmlns="http://www.w3.org/2000/svg">
<path d="M15.3617 4.58334H27.4384C27.5839 4.58283 27.7273 4.61864 27.8555 4.68752C27.9837 4.7564 28.0927 4.85617 28.1727 4.97781C28.2526 5.09944 28.3009 5.23909 28.3133 5.38411C28.3256 5.52914 28.3016 5.67495 28.2434 5.80834L23.5184 16.8367H31.4834C31.5501 16.8374 31.6152 16.8571 31.671 16.8935C31.7269 16.93 31.7712 16.9816 31.7987 17.0424C31.8262 17.1031 31.8357 17.1705 31.8262 17.2365C31.8167 17.3025 31.7886 17.3645 31.745 17.415L15.5017 35.2667C15.4574 35.3329 15.3908 35.3811 15.3139 35.4025C15.2371 35.4238 15.1552 35.417 15.083 35.3831C15.0109 35.3492 14.9532 35.2906 14.9206 35.2179C14.8879 35.1451 14.8824 35.0631 14.905 34.9867L16.5167 22.0867H9.06004C8.91522 22.0886 8.77217 22.0547 8.64368 21.9879C8.51519 21.921 8.40525 21.8234 8.3237 21.7037C8.24215 21.584 8.19152 21.446 8.17634 21.302C8.16116 21.158 8.1819 21.0124 8.2367 20.8783L14.5367 5.12501C14.6035 4.96189 14.718 4.82274 14.8652 4.72579C15.0124 4.62884 15.1855 4.58027 15.3617 4.58334Z" stroke="white" stroke-width="1.5" stroke-linecap="round" stroke-linejoin="round"/>
</svg>
