<svg width="40" height="40" viewBox="0 0 40 40" fill="none" xmlns="http://www.w3.org/2000/svg">
<path d="M34.9333 27.4167C34.95 27.1667 35 26.9167 35 26.6667V27.5001L34.9333 27.4167ZM18.3333 26.6667C18.3333 27.8501 18.5833 28.9834 19.0333 30.0001H10V31.6667C10 32.5834 9.25 33.3334 8.33333 33.3334H6.66667C5.75 33.3334 5 32.5834 5 31.6667V18.3334L8.46667 8.33341C8.8 7.36675 9.73333 6.66675 10.8333 6.66675H29.1667C30.2667 6.66675 31.2 7.36675 31.5333 8.33341L35 18.3334V26.6667C35 22.0667 31.2667 18.3334 26.6667 18.3334C22.0667 18.3334 18.3333 22.0667 18.3333 26.6667ZM13.3333 22.5001C13.3333 21.1167 12.2167 20.0001 10.8333 20.0001C9.45 20.0001 8.33333 21.1167 8.33333 22.5001C8.33333 23.8834 9.45 25.0001 10.8333 25.0001C12.2167 25.0001 13.3333 23.8834 13.3333 22.5001ZM31.6667 16.6667L29.1667 9.16675H10.8333L8.33333 16.6667H31.6667ZM38.1167 35.3167L31.2667 28.4667C31.95 26.7334 31.5667 24.7001 30.1333 23.2834C28.6333 21.7667 26.3833 21.4667 24.5667 22.3001L27.8 25.5334L25.55 27.8001L22.2333 24.5501C21.3333 26.3667 21.75 28.6167 23.2167 30.1334C23.8786 30.8087 24.7235 31.2757 25.6473 31.477C26.5712 31.6784 27.5338 31.6053 28.4167 31.2667L35.2667 38.1001C35.5667 38.4167 36.0167 38.4167 36.3167 38.1001L38.05 36.3834C38.4167 36.0834 38.4167 35.5501 38.1167 35.3167Z" fill="white"/>
</svg>
