<svg width="40" height="40" viewBox="0 0 40 40" fill="none" xmlns="http://www.w3.org/2000/svg">
<path d="M10 6.66659C10 7.55064 9.64885 8.39849 9.02373 9.02361C8.39861 9.64873 7.55076 9.99992 6.66671 9.99992C5.78265 9.99992 4.93481 9.64873 4.30968 9.02361C3.68456 8.39849 3.33337 7.55064 3.33337 6.66659C3.33337 5.78253 3.68456 4.93468 4.30968 4.30956C4.93481 3.68444 5.78265 3.33325 6.66671 3.33325C7.55076 3.33325 8.39861 3.68444 9.02373 4.30956C9.64885 4.93468 10 5.78253 10 6.66659ZM10 33.3333C10 34.2173 9.64885 35.0652 9.02373 35.6903C8.39861 36.3154 7.55076 36.6666 6.66671 36.6666C5.78265 36.6666 4.93481 36.3154 4.30968 35.6903C3.68456 35.0652 3.33337 34.2173 3.33337 33.3333C3.33337 32.4492 3.68456 31.6014 4.30968 30.9762C4.93481 30.3511 5.78265 29.9999 6.66671 29.9999C7.55076 29.9999 8.39861 30.3511 9.02373 30.9762C9.64885 31.6014 10 32.4492 10 33.3333ZM23.3334 33.3333C23.3334 34.2173 22.9822 35.0652 22.3571 35.6903C21.7319 36.3154 20.8841 36.6666 20 36.6666C19.116 36.6666 18.2681 36.3154 17.643 35.6903C17.0179 35.0652 16.6667 34.2173 16.6667 33.3333C16.6667 32.4492 17.0179 31.6014 17.643 30.9762C18.2681 30.3511 19.116 29.9999 20 29.9999C20.8841 29.9999 21.7319 30.3511 22.3571 30.9762C22.9822 31.6014 23.3334 32.4492 23.3334 33.3333ZM23.3334 6.66659C23.3334 7.55064 22.9822 8.39849 22.3571 9.02361C21.7319 9.64873 20.8841 9.99992 20 9.99992C19.116 9.99992 18.2681 9.64873 17.643 9.02361C17.0179 8.39849 16.6667 7.55064 16.6667 6.66659C16.6667 5.78253 17.0179 4.93468 17.643 4.30956C18.2681 3.68444 19.116 3.33325 20 3.33325C20.8841 3.33325 21.7319 3.68444 22.3571 4.30956C22.9822 4.93468 23.3334 5.78253 23.3334 6.66659ZM36.6667 6.66659C36.6667 7.55064 36.3155 8.39849 35.6904 9.02361C35.0653 9.64873 34.2174 9.99992 33.3334 9.99992C32.4493 9.99992 31.6015 9.64873 30.9764 9.02361C30.3512 8.39849 30 7.55064 30 6.66659C30 5.78253 30.3512 4.93468 30.9764 4.30956C31.6015 3.68444 32.4493 3.33325 33.3334 3.33325C34.2174 3.33325 35.0653 3.68444 35.6904 4.30956C36.3155 4.93468 36.6667 5.78253 36.6667 6.66659Z" stroke="white" stroke-width="1.5"/>
<path d="M20.0001 10V21.6667M20.0001 30V26.6667M6.66675 30V18.3333M6.66675 10V13.3333M33.3334 10V13.3333C33.3334 16.4767 33.3334 18.0467 32.3567 19.0233C31.3801 20 29.8101 20 26.6667 20H16.6667M6.66675 20H10.0001" stroke="white" stroke-width="1.5" stroke-linecap="round"/>
<path d="M30.5 24.25H33.31V25.75H31.75V25V24.5H31.25H30.5V24.25ZM30.5 25.5H30.75V25.75H30.5V25.5ZM30 26.75H30.75V29.0833H30H29.5V29.5833V30.3333H29.25V25.5H29.5V26.25V26.75H30ZM31.75 30.3333V30.0833H32.595V30.5532L31.7672 31.0603L31.75 31.0708V30.8333V30.3333ZM30.75 31.3333V31.5833H30.5V31.3333H30.75ZM30.75 30.3333H30.5V30.0833H30.75V30.3333ZM29.25 31.3333H29.5V32.0833V32.5833H30H30.75V36.1667H29.25V31.3333ZM29.441 37.1667H30.559C30.5498 37.177 30.5402 37.1871 30.5303 37.197L30.8725 37.5391L30.5303 37.197C30.3897 37.3376 30.1989 37.4167 30 37.4167C29.8011 37.4167 29.6103 37.3376 29.4697 37.197L29.12 37.5466L29.4697 37.197C29.4598 37.1871 29.4502 37.177 29.441 37.1667ZM35.7653 36.6324L33.2861 32.5833H33.31H33.595H33.81H34.31V32.5564C34.5314 32.5323 34.7477 32.4925 34.958 32.4381L37.0459 35.8481L35.7653 36.6324ZM37.3833 28.4167C37.2176 29.6474 36.4493 30.6913 35.3832 31.2175L34.5936 29.9279C35.2188 29.6698 35.7017 29.1116 35.8607 28.4167H37.3833ZM34.4044 31.5339C34.3731 31.5392 34.3416 31.5441 34.31 31.5485V31.3798L34.4044 31.5339ZM35.8607 27.4167C35.6784 26.6198 35.0702 26.0029 34.31 25.8118V24.2848C35.9123 24.5101 37.166 25.8027 37.3833 27.4167H35.8607ZM29.5 24.441V24.5H29.441C29.4502 24.4897 29.4598 24.4795 29.4697 24.4697C29.4795 24.4598 29.4897 24.4502 29.5 24.441ZM36.4501 37.3856L37.4055 36.8005C37.403 36.8144 37.4001 36.8283 37.3967 36.8421C37.3737 36.938 37.332 37.0284 37.274 37.1081C37.216 37.1879 37.1429 37.2555 37.0588 37.307L37.32 37.7333L37.0588 37.307C36.9748 37.3585 36.8814 37.3929 36.784 37.4083C36.6866 37.4237 36.5871 37.4198 36.4912 37.3967C36.4774 37.3934 36.4637 37.3897 36.4501 37.3856Z" fill="black" stroke="white"/>
</svg>
